<svg width="24" height="24" viewBox="0 0 24 24" fill="none" xmlns="http://www.w3.org/2000/svg">
<path d="M12 24C8.8174 24 5.76516 22.7357 3.51472 20.4853C1.26428 18.2348 0 15.1826 0 12C0 8.8174 1.26428 5.76516 3.51472 3.51472C5.76516 1.26428 8.8174 0 12 0C15.1826 0 18.2348 1.26428 20.4853 3.51472C22.7357 5.76516 24 8.8174 24 12C24 15.1826 22.7357 18.2348 20.4853 20.4853C18.2348 22.7357 15.1826 24 12 24ZM17.67 9.42C17.8686 9.20661 17.9768 8.92453 17.9717 8.63305C17.9667 8.34158 17.8489 8.0634 17.643 7.857C17.4366 7.65114 17.1584 7.5333 16.8669 7.52827C16.5755 7.52323 16.2934 7.63139 16.08 7.83L10.125 13.785L7.92 11.58C7.70661 11.3814 7.42453 11.2732 7.13305 11.2783C6.84158 11.2833 6.5634 11.4011 6.357 11.607C6.15114 11.8134 6.0333 12.0916 6.02827 12.3831C6.02323 12.6745 6.13139 12.9566 6.33 13.17L9.33 16.17C9.54094 16.3807 9.82687 16.499 10.125 16.499C10.4231 16.499 10.7091 16.3807 10.92 16.17L17.67 9.42Z" fill="#44A046"/>
</svg>
