<svg width="25" height="24" viewBox="0 0 25 24" fill="none" xmlns="http://www.w3.org/2000/svg">
<path d="M3.51459 20.4855C2.40026 19.3711 1.51634 18.0481 0.913307 16.592C0.310272 15.136 -6.96322e-05 13.5754 1.1719e-08 11.9995C0.000140664 8.81663 1.26465 5.76423 3.51534 3.51373C5.76603 1.26324 8.81855 -0.000995133 12.0014 -0.00085448C15.1842 -0.000713828 18.2366 1.26379 20.4871 3.51448C22.7376 5.76518 24.0018 8.8177 24.0017 12.0005C24.0015 15.1833 22.737 18.2357 20.4863 20.4862C18.2356 22.7367 15.1831 24.001 12.0003 24.0008C8.81749 24.0007 5.76508 22.7362 3.51459 20.4855ZM9.04509 7.45498C8.8317 7.25637 8.54962 7.14822 8.25814 7.15325C7.96667 7.15829 7.68849 7.27612 7.48209 7.48199C7.27622 7.68839 7.15839 7.96656 7.15336 8.25804C7.14832 8.54952 7.25648 8.83159 7.45509 9.04499L10.4101 12L7.45509 14.955C7.307 15.0925 7.19875 15.2674 7.14172 15.4613C7.0847 15.6551 7.08103 15.8608 7.13109 16.0566C7.18115 16.2524 7.28309 16.431 7.42617 16.5737C7.56925 16.7165 7.74817 16.8179 7.94409 16.8675C8.13965 16.9176 8.34511 16.9141 8.53886 16.8574C8.7326 16.8006 8.90748 16.6927 9.04509 16.545L12.0001 13.59L14.9551 16.545C15.0926 16.6931 15.2675 16.8013 15.4614 16.8583C15.6552 16.9154 15.8609 16.919 16.0567 16.869C16.2525 16.8189 16.4311 16.717 16.5739 16.5739C16.7166 16.4308 16.818 16.2519 16.8676 16.056C16.9177 15.8604 16.9142 15.655 16.8575 15.4612C16.8007 15.2675 16.6928 15.0926 16.5451 14.955L13.5901 12L16.5451 9.04499C16.6932 8.90748 16.8014 8.73257 16.8585 8.5387C16.9155 8.34483 16.9192 8.13916 16.8691 7.94338C16.819 7.74759 16.7171 7.56893 16.574 7.42622C16.4309 7.28351 16.252 7.18204 16.0561 7.13249C15.8605 7.08236 15.6551 7.08586 15.4613 7.14261C15.2676 7.19936 15.0927 7.30727 14.9551 7.45498L12.0001 10.41L9.04509 7.45498Z" fill="#E53A36"/>
</svg>
