<svg width="24" height="24" viewBox="0 0 24 24" fill="none" xmlns="http://www.w3.org/2000/svg">
<path d="M17.65 6.35001C16.8118 5.50428 15.7944 4.85762 14.6728 4.4578C13.5512 4.05798 12.3542 3.9152 11.17 4.04001C7.50002 4.41001 4.48002 7.39001 4.07002 11.06C3.52002 15.91 7.27002 20 12 20C13.5101 20 14.9892 19.5715 16.2655 18.7643C17.5418 17.9572 18.5628 16.8044 19.21 15.44C19.53 14.77 19.05 14 18.31 14C17.94 14 17.59 14.2 17.43 14.53C16.8494 15.779 15.8564 16.79 14.6179 17.3928C13.3795 17.9957 11.9712 18.1536 10.63 17.84C8.41002 17.35 6.62002 15.54 6.15002 13.32C5.95245 12.4423 5.95474 11.5313 6.15672 10.6546C6.35869 9.77787 6.75519 8.95776 7.31687 8.25493C7.87856 7.55211 8.59107 6.98454 9.40169 6.59423C10.2123 6.20392 11.1003 6.00084 12 6.00001C13.66 6.00001 15.14 6.69001 16.22 7.78001L14.71 9.29001C14.08 9.92001 14.52 11 15.41 11H19C19.55 11 20 10.55 20 10V6.41001C20 5.52001 18.92 5.07001 18.29 5.70001L17.65 6.35001Z" fill="black"/>
</svg>
