<svg width="24" height="24" viewBox="0 0 24 24" fill="none" xmlns="http://www.w3.org/2000/svg">
<path d="M12.0117 9.15468C11.3109 9.15468 10.6547 9.42655 10.1578 9.92343C9.66329 10.4203 9.38907 11.0766 9.38907 11.7773C9.38907 12.4781 9.66329 13.1344 10.1578 13.6312C10.6547 14.1258 11.3109 14.4 12.0117 14.4C12.7125 14.4 13.3688 14.1258 13.8656 13.6312C14.3602 13.1344 14.6344 12.4781 14.6344 11.7773C14.6344 11.0766 14.3602 10.4203 13.8656 9.92343C13.6229 9.67887 13.3341 9.48498 13.0158 9.35301C12.6976 9.22104 12.3563 9.15362 12.0117 9.15468ZM21.675 14.6742L20.1422 13.3641C20.2149 12.9187 20.2524 12.4641 20.2524 12.0117C20.2524 11.5594 20.2149 11.1023 20.1422 10.6594L21.675 9.34921C21.7908 9.25008 21.8737 9.11806 21.9126 8.97069C21.9515 8.82332 21.9447 8.66759 21.893 8.52421L21.8719 8.46327C21.45 7.28364 20.818 6.1902 20.0063 5.23593L19.9641 5.18671C19.8655 5.07081 19.7341 4.9875 19.5873 4.94776C19.4404 4.90801 19.285 4.91369 19.1414 4.96405L17.2383 5.64139C16.5352 5.06483 15.7524 4.61014 14.9039 4.29374L14.5359 2.30389C14.5082 2.15399 14.4355 2.01609 14.3275 1.9085C14.2195 1.80091 14.0813 1.72873 13.9313 1.70155L13.868 1.68983C12.6492 1.46952 11.3649 1.46952 10.1461 1.68983L10.0828 1.70155C9.93282 1.72873 9.79463 1.80091 9.68662 1.9085C9.57861 2.01609 9.5059 2.15399 9.47814 2.30389L9.10782 4.30311C8.26742 4.62204 7.48453 5.07563 6.78986 5.64608L4.87267 4.96405C4.72915 4.91329 4.57358 4.9074 4.42664 4.94717C4.2797 4.98695 4.14834 5.07049 4.05001 5.18671L4.00782 5.23593C3.19757 6.19121 2.56565 7.28438 2.1422 8.46327L2.12111 8.52421C2.01564 8.81718 2.10236 9.1453 2.33907 9.34921L3.89064 10.6734C3.81798 11.1141 3.78282 11.5641 3.78282 12.0094C3.78282 12.4594 3.81798 12.9094 3.89064 13.3453L2.34376 14.6695C2.22797 14.7686 2.1451 14.9007 2.10616 15.048C2.06723 15.1954 2.07407 15.3511 2.12579 15.4945L2.14689 15.5555C2.57111 16.7344 3.19689 17.8242 4.01251 18.7828L4.0547 18.832C4.15326 18.9479 4.28463 19.0312 4.43148 19.071C4.57834 19.1107 4.73379 19.105 4.87735 19.0547L6.79454 18.3726C7.49298 18.9469 8.2711 19.4016 9.11251 19.7156L9.48282 21.7148C9.51059 21.8647 9.5833 22.0026 9.69131 22.1102C9.79932 22.2178 9.9375 22.29 10.0875 22.3172L10.1508 22.3289C11.3815 22.5504 12.6419 22.5504 13.8727 22.3289L13.9359 22.3172C14.086 22.29 14.2241 22.2178 14.3322 22.1102C14.4402 22.0026 14.5129 21.8647 14.5406 21.7148L14.9086 19.725C15.757 19.4062 16.5399 18.9539 17.243 18.3773L19.1461 19.0547C19.2896 19.1054 19.4452 19.1113 19.5921 19.0716C19.7391 19.0318 19.8704 18.9482 19.9688 18.832L20.0109 18.7828C20.8266 17.8195 21.4524 16.7344 21.8766 15.5555L21.8977 15.4945C21.9984 15.2039 21.9117 14.8781 21.675 14.6742ZM12.0117 15.8976C9.73595 15.8976 7.89142 14.0531 7.89142 11.7773C7.89142 9.50155 9.73595 7.65702 12.0117 7.65702C14.2875 7.65702 16.132 9.50155 16.132 11.7773C16.132 14.0531 14.2875 15.8976 12.0117 15.8976Z" fill="black"/>
</svg>
