<svg width="24" height="24" viewBox="0 0 24 24" fill="none" xmlns="http://www.w3.org/2000/svg">
<path d="M15 3H9V1H15V3ZM12 18.5C12 19.77 12.37 20.94 13 21.94C12.67 22 12.34 22 12 22C9.61305 22 7.32387 21.0518 5.63604 19.364C3.94821 17.6761 3 15.3869 3 13C3 10.6131 3.94821 8.32387 5.63604 6.63604C7.32387 4.94821 9.61305 4 12 4C14.12 4 16.07 4.74 17.62 6L19.04 4.56C19.55 5 20 5.46 20.45 5.97L19.03 7.39C20.1923 8.85264 20.8797 10.6357 21 12.5C20.0122 12.0884 18.9381 11.9271 17.873 12.0303C16.8079 12.1335 15.7848 12.4981 14.8944 13.0917C14.0041 13.6852 13.274 14.4895 12.7691 15.4329C12.2642 16.3764 12 17.4299 12 18.5ZM13 7H11V14H13V7ZM23 18.5C23 21 21 23 18.5 23C16 23 14 21 14 18.5C14 16 16 14 18.5 14C21 14 23 16 23 18.5ZM20 21.08L15.92 17C15.65 17.42 15.5 17.94 15.5 18.5C15.5 20.16 16.84 21.5 18.5 21.5C19.06 21.5 19.58 21.35 20 21.08ZM21.5 18.5C21.5 16.84 20.16 15.5 18.5 15.5C17.94 15.5 17.42 15.65 17 15.92L21.08 20C21.35 19.58 21.5 19.06 21.5 18.5Z" fill="black"/>
</svg>
